<svg width="538" height="549" viewBox="0 0 538 549" fill="none" xmlns="http://www.w3.org/2000/svg">
<path d="M144 19.0714C141.239 14.2885 142.877 8.17256 147.66 5.41113V5.41113C152.443 2.64971 158.559 4.28846 161.321 9.07139L186.594 52.8456L169.273 62.8456L144 19.0714Z" fill="#00E28F"/>
<path d="M377.255 8.66026C380.017 3.87734 386.133 2.23858 390.916 5V5C395.699 7.76142 397.337 13.8773 394.576 18.6603L369.303 62.4344L351.982 52.4344L377.255 8.66026Z" fill="#00E28F"/>
<path d="M457.5 189.911C457.5 148.67 436.246 109.118 401.083 79.956C365.919 50.7941 318.228 34.4111 268.5 34.4111C218.772 34.4111 171.081 50.7941 135.917 79.956C100.754 109.118 81 149.67 81 190.911L268.5 189.911H457.5Z" fill="#D9D9D9"/>
<path d="M269 206.411H458V359.411C458 463.793 373.382 548.411 269 548.411V548.411V206.411Z" fill="#D9D9D9"/>
<path d="M269 206.411H80V359.411C80 463.793 164.618 548.411 269 548.411V548.411V206.411Z" fill="#00E28F"/>
<path d="M32.5 215.411C50.4493 215.411 65 229.962 65 247.911V251.411H80V271.411H65V387.911C65 405.86 50.4493 420.411 32.5 420.411C14.5507 420.411 0 405.86 0 387.911V247.911C3.06042e-06 229.962 14.5507 215.411 32.5 215.411Z" fill="#00E28F"/>
<path d="M505.5 215.411C523.449 215.411 538 229.962 538 247.911V387.911C538 405.86 523.449 420.411 505.5 420.411C487.551 420.411 473 405.86 473 387.911V271.411H458V251.411H473V247.911C473 229.962 487.551 215.411 505.5 215.411Z" fill="#00E28F"/>
<circle cx="352" cy="121" r="19" fill="#00E28F"/>
<circle cx="182" cy="121" r="19" fill="#00E28F"/>
</svg>
